@startuml
'https://plantuml.com/class-diagram


class Client {
    orderPizza() : Pizza
}

note left of Client : Pizza p = pizzaFactory.createPizza()


Client --> SimplePizzaFactory


'PizzaFactory <-- MargheritaPizza
'PizzaFactory <-- FunghiPizza
'PizzaFactory <-- ProsciuttoPizza

abstract class Pizza

class SimplePizzaFactory {
createPizza(): Pizza
}
note bottom of SimplePizzaFactory
"return new XXXPizza()"
end note

SimplePizzaFactory -> Pizza

class FunghiPizza
class MargheritaPizza
class ProsciuttoPizza

Pizza <|-- FunghiPizza
Pizza <|-- MargheritaPizza
Pizza <|-- ProsciuttoPizza



@enduml