@startuml
'https://plantuml.com/class-diagram


class Client
abstract Facade

Client --> Facade

set separator ::
class ComplexLibrary::ClassA
class ComplexLibrary::ClassB
class ComplexLibrary::ClassC
class ComplexLibrary::ClassD
class ComplexLibrary::ClassE
class ComplexLibrary::ClassF


Facade --> ClassA
Facade --> ClassB
Facade --> ClassC
Facade --> ClassD
Facade --> ClassE
Facade --> ClassF

@enduml